<svg version="1" xmlns="http://www.w3.org/2000/svg" width="682.667" height="682.667" viewBox="0 0 512.000000 512.000000"><path d="M244 60.5c-.8.2-4.9.9-9 1.5-21.6 3.5-45.2 14.6-61.3 28.9-24.6 21.8-37.7 53.1-39.3 94.1-.5 12.4-.3 16 1.5 24.7 8.5 41.2 35.4 79.6 78.6 112.5 9 6.8 27.5 18.8 29 18.8.9 0-.6 3.5-4.1 9.5-7.8 13.6-8 12.5 1.5 12.5h8.1l.3 44.7.2 44.8.3-44.8.2-44.7h12l.3 44.7.2 44.8.3-44.8.2-44.7h8.1c9.4 0 9.3 1.1 1.6-12.2l-5.3-9.3 4.6-2.3c6.5-3.2 26.2-17.3 38.1-27.2 34.9-29.2 58.4-65.5 66-102.3 1.8-8.7 2-12.3 1.5-24.7-1.8-45-17.1-77.9-46.7-100-13.7-10.2-32.5-18.5-51-22.6-6.7-1.4-32.2-2.8-35.9-1.9zm15.4 20.9c9.4 4.4 11.8 8.5 9.7 16.5-3.9 14.9-19 36.5-41.6 60-25.8 26.7-50.6 44.1-62.8 44.1-4.1 0-5.2-.5-7.6-3-3.1-3.5-5.8-10.4-6.7-17.5-1.8-15.2 7-43.5 20.1-64 9.8-15.2 28.2-28.2 49.5-34.9 16.4-5.2 30-5.6 39.4-1.2z"/></svg>