<svg version="1" xmlns="http://www.w3.org/2000/svg" width="682.667" height="682.667" viewBox="0 0 512.000000 512.000000"><path d="M238 1C127.8 8.7 35.1 86.5 8 193.9 2.8 214.7.8 231.9.8 256s2 41.3 7.2 62.1c23.1 91.7 94.2 162.8 185.9 185.9 20.8 5.2 38 7.2 62.1 7.2s41.3-2 62.1-7.2c91.7-23.1 162.8-94.2 185.9-185.9 5.2-20.8 7.2-38 7.2-62.1s-2-41.3-7.2-62.1C473.7 73.6 361.6-7.6 238 1zm41.1 62c13.7 2.8 23.3 6.1 34.9 12.2 38.9 20.1 59.8 55.1 62.9 105.2 1.5 25.5-2.9 44.8-16 69.5-9.8 18.4-19.2 30.6-37.3 48.6-16.7 16.6-49.7 41.5-54.9 41.5-2.6 0-2.1 1.5 4.2 12.6l6 10.4H263v89h-14v-89h-15.9l6-10.4c6.3-11.1 6.8-12.6 4.2-12.6-4.5 0-36.5-23.6-51.9-38.3-30.5-29.1-50.7-63.5-55.3-94.2-1.8-12-1.9-13.7-1-27.3 3.3-49.7 24.1-85 61.7-104.5 16-8.3 27.1-11.6 49.7-15.1 5.9-.9 22.3.3 32.6 2.4z"/></svg>